<?xml version="1.0" encoding="UTF-8"?>
<!DOCTYPE svg PUBLIC "-//W3C//DTD SVG 1.1//EN" "http://www.w3.org/Graphics/SVG/1.1/DTD/svg11.dtd">
<!-- Creator: CorelDRAW -->
<svg xmlns="http://www.w3.org/2000/svg" xml:space="preserve" width="205mm" height="205mm" style="shape-rendering:geometricPrecision; text-rendering:geometricPrecision; image-rendering:optimizeQuality; fill-rule:evenodd; clip-rule:evenodd"
viewBox="0 0 205 205"
 xmlns:xlink="http://www.w3.org/1999/xlink">
 <defs>
  <style type="text/css">
   <![CDATA[
    .fil9 {fill:#44916C}
    .fil0 {fill:#7A896C}
    .fil8 {fill:#84C225}
    .fil1 {fill:#99AE6A}
    .fil5 {fill:#B76767}
    .fil3 {fill:#C0A062}
    .fil2 {fill:#C4BF66}
    .fil6 {fill:#EE9A69}
    .fil4 {fill:#F5C491}
    .fil7 {fill:#F8C300}
   ]]>
  </style>
 </defs>
 <g id="Layer_x0020_1">
  <metadata id="CorelCorpID_0Corel-Layer"/>
  <path class="fil0" d="M85.1189 130.987c0.9184,-5.2041 2.925,-10.8505 6.0204,-16.973 3.0954,-6.0883 6.8026,-11.3944 11.1566,-15.8842 4.3536,-4.4898 8.6735,-6.7347 12.9929,-6.7347 3.1975,0 5.4765,1.0204 6.8709,3.0271 1.3945,2.0408 2.1087,4.1495 2.1087,6.3607 0,5.3061 -1.3602,8.8775 -4.0816,10.7143 -2.7209,1.8026 -8.1633,4.4215 -16.2924,7.823 -8.1291,3.3673 -14.3877,7.279 -18.7755,11.6668z"/>
  <path class="fil0" d="M85.1189 120.714c-3.1291,-6.3944 -4.6939,-13.7414 -4.6939,-22.0408 0,-6.1904 1.7347,-11.1904 5.17,-15.0338 3.4694,-3.8775 8.1295,-5.7826 14.0479,-5.7826 3.0612,0 6.1224,0.7485 9.2174,2.2791 3.0953,1.5306 4.626,3.1633 4.626,4.8979 0,1.2587 -1.3945,2.347 -4.1496,3.2654 -2.7551,0.9525 -5.2382,1.9729 -7.4489,3.1632 -2.2112,1.1566 -4.7622,3.7755 -7.6194,7.823 -3.9113,5.5785 -6.9725,12.7214 -9.1495,21.4286z"/>
  <path class="fil1" d="M2.5 117.109c3.8434,-3.1633 7.0746,-7.6193 9.6939,-13.2994 2.6189,-5.6802 4.5918,-9.3878 5.9183,-11.1225 1.3266,-1.7347 4.2858,-2.5852 8.8776,-2.5852 3.0612,0 5.6801,1.0546 7.8571,3.1296 2.2108,2.1087 3.2991,4.7617 3.2991,7.925 0,1.5985 -0.272,3.0954 -0.8163,4.4898 1.803,-0.7822 3.5714,-1.1903 5.3061,-1.1903 2.7213,0 4.9321,0.8163 6.6326,2.4489 1.701,1.6327 2.5173,3.8776 2.5173,6.7347 0,2.993 -0.9525,5.646 -2.8571,8.0271 -1.9388,2.3469 -4.4219,4.1837 -7.4832,5.4761 -3.0612,1.2927 -5.9862,1.9387 -8.7755,1.9387 -4.5239,0 -7.9933,-0.5439 -10.4423,-1.5985 -2.4827,-1.0545 -5.646,-2.8571 -9.5235,-5.374 -3.8776,-2.5173 -7.2791,-4.1837 -10.2041,-5z"/>
  <path class="fil2" d="M63.8603 122.007l3.2994 4.8979c-5,3.2991 -8.4352,7.8572 -10.374,13.6394 2.1087,-1.0546 4.4215,-1.5986 6.8705,-1.5986 3.8775,0 7.0408,1.3603 9.5239,4.0817 2.4832,2.7209 3.7414,5.9862 3.7414,9.7617 0,5.0679 -0.7143,8.8435 -2.1429,11.3607 -1.4285,2.5169 -3.6051,5.7822 -6.5306,9.7277 -2.925,3.9458 -4.3877,7.2448 -4.3877,9.8979 0,2.3811 0.6464,4.728 1.905,6.9729 -5.7826,-1.5985 -11.4969,-4.4898 -17.1091,-8.6734 -5.6123,-4.1837 -10.2378,-8.9455 -13.8434,-14.2858 -3.6393,-5.3402 -5.4423,-10.476 -5.4423,-15.4081 0,-4.3536 1.3948,-8.1291 4.1837,-11.2587 2.7892,-3.0949 5.8846,-4.6597 9.2857,-4.6597 3.3673,0 6.0887,1.3607 8.1632,4.0817 0.9184,-8.5036 5.2041,-14.6939 12.8572,-18.5373z"/>
  <path class="fil3" d="M78.0102 179.694c2.9929,-6.5644 6.2582,-12.0408 9.8297,-16.3944 3.5377,-4.3537 7.551,-7.5852 12.0408,-9.7618 4.4898,-2.1429 9.5581,-3.2316 15.2041,-3.2316 7.7551,0 13.7076,2.177 17.7892,6.5648 4.0816,4.3877 6.1225,9.3536 6.1225,14.8638 0,7.1091 -4.3536,10.6464 -13.0613,10.6464 -2.5851,-8.4353 -8.2311,-12.6531 -16.9046,-12.6531 -5,0 -9.4219,0.6123 -13.2653,1.8026 5.102,0.3403 9.7618,1.3948 13.9113,3.1633 4.1158,1.803 7.4831,4.1499 10,7.007 2.5173,2.8572 3.7755,5.8501 3.7755,9.0475 0,2.4149 -0.9521,4.3536 -2.8909,5.8843 -1.9388,1.5306 -3.8096,2.279 -5.6805,2.279 -3.7072,0 -6.2583,-0.4761 -7.6531,-1.4627 -1.3944,-1.0204 -3.3673,-2.993 -5.8842,-5.9863 -2.5169,-2.9933 -5.4423,-5.4423 -8.7414,-7.3811 -3.2653,-1.9387 -8.1295,-3.4011 -14.5918,-4.3877z"/>
  <path class="fil4" d="M133.316 135.646l4.898 -4.6597c0.9184,5.646 3.0271,10.6801 6.3603,15.1357 3.3336,4.4561 7.2111,8.1633 11.6668,11.1908 4.4556,3.0271 9.0474,5.5102 13.8096,7.4827 4.7276,1.9729 9.3536,3.5377 13.8093,4.728 -4.5919,6.2587 -11.0542,9.3878 -19.3536,9.3878 -3.5036,0 -6.6327,-0.9863 -9.3536,-2.8913 -2.7214,-1.9388 -4.8643,-4.6256 -6.4286,-8.0271 -1.5648,-3.4352 -2.3469,-7.3811 -2.3469,-11.9046 -2.7214,-3.4694 -5.1704,-6.905 -7.347,-10.3061 -2.1428,-3.4357 -4.0479,-6.803 -5.7143,-10.1362z"/>
  <path class="fil5" d="M154.235 101.973c1.5306,-0.1362 3.6735,-0.2041 6.3944,-0.2041 10.17,0 18.3674,1.8026 24.626,5.3741 6.2582,3.6055 10.6801,7.9591 13.2991,13.0953 2.6193,5.17 3.9458,10.1021 3.9458,14.8301 0,4.4215 -1.6668,8.5031 -5.0341,12.1766 -3.3674,3.7076 -7.2108,5.5443 -11.5307,5.5443 -4.6259,0 -8.4693,-1.9729 -11.4627,-5.8842 4.9321,-3.8438 7.3811,-8.6397 7.3811,-14.354 0,-6.9725 -2.449,-12.1087 -7.3811,-15.4419 0.4082,3.4011 0.6123,6.3944 0.6123,8.9796 0,7.6531 -1.2245,12.6868 -3.6735,15.102 -2.4827,2.4149 -5.6122,3.6394 -9.3878,3.6394 -2.3469,0 -4.3536,-1.1225 -6.0204,-3.4015 -1.7005,-2.2449 -2.551,-4.8638 -2.551,-7.8572 0,-2.449 0.3061,-4.4215 0.8846,-5.85 0.6123,-1.4286 1.4965,-2.8913 2.6868,-4.4219 1.2245,-1.5307 2.1092,-3.1292 2.7214,-4.796 0.5781,-1.6668 0.8842,-4.2515 0.8842,-7.7551 0,-1.5985 -0.6122,-3.1974 -1.8026,-4.7959 -1.1907,-1.5985 -2.7213,-2.925 -4.5918,-3.9796z"/>
  <path class="fil6" d="M144.881 83.2314l0 -5.9867c1.8709,2.0071 4.2178,3.7418 7.0749,5.2724 2.8572,1.5306 5.3403,2.3128 7.4832,2.3128 2.653,0 4.6939,-1.3607 6.0883,-4.0817 -3.1291,-0.476 -5.6123,-1.5647 -7.449,-3.2994 -1.8367,-1.7347 -2.7551,-4.3878 -2.7551,-7.9592 0,-4.3195 1.7347,-8.0612 5.1362,-11.2245 3.4352,-3.1633 7.5169,-5 12.2449,-5.5439l6.2582 0c2.9933,0.3398 7.0071,1.2582 12.0071,2.7209 5.0337,1.4286 8.8775,2.9933 11.5306,4.6597 -4.5239,2.5173 -7.3811,5.2724 -8.6397,8.2316 -1.2245,2.9592 -1.8368,6.1225 -1.8368,9.5235 0.0683,1.0546 0.1362,2.0409 0.1704,2.9255 0,0.8842 0.0337,2.0408 0.0337,3.4352 0,2.2791 -1.0883,4.1837 -3.299,5.7822 -2.177,1.5989 -4.6602,2.3811 -7.449,2.3811 -4.524,0 -8.4357,-2.3128 -11.6668,-6.9729 -2.4831,3.5376 -6.0546,5.3061 -10.7822,5.3061 -5.5785,0 -10.3061,-2.5169 -14.1499,-7.4827z"/>
  <path class="fil7" d="M111.003 54.6258c-0.2719,-1.3944 -0.4081,-3.5036 -0.4081,-6.3607 0,-5.0337 0.9183,-9.8638 2.7551,-14.4556 1.803,-4.626 4.2857,-8.6735 7.4152,-12.2108 3.1291,-3.5035 6.7006,-6.2586 10.748,-8.2316 4.0817,-2.0066 8.2653,-2.9929 12.5852,-2.9929 5.7143,0 10.7484,1.5644 15.102,4.7276 4.3537,3.1296 6.4965,6.9388 6.4965,11.3607 0,2.6531 -0.5781,4.8638 -1.7684,6.6668 -1.1908,1.7685 -2.6872,2.6531 -4.4898,2.6531 -1.7347,0 -3.8438,-0.6806 -6.3266,-2.0408 -2.4831,-1.3607 -4.83,-2.4153 -6.9729,-3.2316 -2.177,-0.7822 -5.374,-1.1903 -9.626,-1.1903 -4.5918,0 -8.9454,1.3606 -13.0612,4.0816 10.6123,0.9863 18.9459,2.4831 24.898,4.4219 5.9866,1.9725 8.9796,5.6801 8.9796,11.1224 0,2.0067 -0.8843,3.6394 -2.6868,4.9318 -1.803,1.2927 -3.8097,1.9387 -6.0887,1.9387 -3.7073,0 -6.4965,-0.2041 -8.3674,-0.646 -1.8367,-0.4081 -3.6393,-1.1224 -5.374,-2.0749 -1.7347,-0.9863 -3.2995,-1.6668 -4.728,-2.1087 -1.4286,-0.4423 -3.9113,-0.6464 -7.4149,-0.6464 -4.728,0 -8.6055,1.4285 -11.6668,4.2857z"/>
  <path class="fil8" d="M84.7108 57.9252l-6.6669 2.1766 0 -17.1428c-1.4623,0.4081 -3.0612,0.6122 -4.7959,0.6122 -6.6664,0 -10,-3.5714 -10,-10.748 0,-5.1703 2.177,-9.7959 6.4969,-13.9117 4.3195,-4.1158 10,-7.279 17.0067,-9.4898 7.0066,-2.2107 14.1495,-3.3332 21.4627,-3.3332 -3.0954,3.8434 -4.6601,7.3128 -4.6601,10.4419 0,1.3265 0.3744,3.3336 1.1907,6.0546 0.7822,2.7209 1.1903,5.5102 1.1903,8.3673 0,4.626 -1.0883,8.8776 -3.2311,12.6872 -2.177,3.8093 -5.5102,5.7143 -10.0342,5.7143 -4.3877,0 -7.4831,-1.6326 -9.3536,-4.8979 0,5.9862 0.4761,10.476 1.3945,13.4693z"/>
  <path class="fil9" d="M29.2005 22.585c3.8435,3.1632 8.4353,6.4627 13.7414,9.8638 5.3061,3.3673 9.1837,5.9866 11.5648,7.8571 2.3811,1.8709 4.4556,4.5581 6.1566,8.1295 1.7347,3.5373 2.5847,8.0613 2.5847,13.5715 0,4.6597 -0.9521,8.5373 -2.925,11.7005 -1.9729,3.1633 -4.5239,5.5444 -7.6872,7.1429 -3.1291,1.5647 -6.4965,2.3811 -10,2.3811 -2.5848,0 -5,-0.6464 -7.2449,-1.9051 -2.2108,-1.2582 -3.3332,-2.8909 -3.3332,-4.8638 0,-0.9525 0.1362,-1.6668 0.4082,-2.2107 7.3127,-7.1091 10.9525,-14.354 10.9525,-21.701 0,-2.9929 -0.5785,-5.6801 -1.803,-8.0949 -0.9184,5.7821 -2.3807,10.5439 -4.4215,14.3194 -2.0071,3.7418 -4.252,6.4969 -6.6668,8.2653 -2.4149,1.7689 -4.7618,2.6193 -7.0067,2.6193 -2.4152,0 -4.4219,-1.0204 -6.0887,-3.0612 -1.6664,-2.075 -2.4827,-4.5581 -2.4827,-7.4831 0,-2.449 0.5439,-4.524 1.6326,-6.2245 1.0883,-1.7006 3.197,-4.4219 6.3266,-8.1974 1.5985,-1.9388 2.8571,-3.5032 3.7755,-4.7276 0.9183,-1.2587 1.7684,-2.6873 2.551,-4.3541 0.748,-1.6664 1.1224,-3.2653 1.1224,-4.8638 0,-3.4694 -0.3744,-6.1903 -1.1566,-8.1632z"/>
 </g>
</svg>
